<svg width="99" height="141" viewBox="0 0 99 141" fill="none" xmlns="http://www.w3.org/2000/svg">
<path d="M30.12 48.48C30.12 42.976 30.968 38.704 32.664 35.664C34.36 32.624 37.4 31.104 41.784 31.104C46.168 31.104 49.208 32.624 50.904 35.664C52.6 38.704 53.448 42.976 53.448 48.48C53.448 54.08 52.6 58.416 50.904 61.488C49.208 64.56 46.168 66.096 41.784 66.096C37.368 66.096 34.312 64.56 32.616 61.488C30.952 58.416 30.12 54.08 30.12 48.48ZM50.136 48.48C50.136 45.504 49.928 42.992 49.512 40.944C49.096 38.896 48.28 37.248 47.064 36C45.848 34.752 44.088 34.128 41.784 34.128C39.48 34.128 37.72 34.752 36.504 36C35.288 37.248 34.472 38.896 34.056 40.944C33.64 42.992 33.432 45.504 33.432 48.48C33.432 51.552 33.64 54.128 34.056 56.208C34.472 58.256 35.288 59.904 36.504 61.152C37.72 62.4 39.48 63.024 41.784 63.024C44.088 63.024 45.848 62.4 47.064 61.152C48.28 59.904 49.096 58.256 49.512 56.208C49.928 54.128 50.136 51.552 50.136 48.48ZM58.0661 34.608V31.584H66.2261V66H62.8181V34.608H58.0661Z" fill="#077AE2"/>
<path d="M73.0507 8.17062C73.5788 7.24374 74.7606 6.91728 75.6662 7.4812C81.1561 10.8999 85.9284 15.3649 89.7079 20.6283C93.8633 26.4152 96.7205 33.031 98.0844 40.0235C99.4483 47.0161 99.2868 54.2207 97.6107 61.145C95.9347 68.0694 92.7837 74.5504 88.3731 80.1453C83.9625 85.7401 78.3961 90.3169 72.0543 93.5631C65.7125 96.8092 58.7447 98.6482 51.6269 98.9543C44.5092 99.2604 37.4092 98.0265 30.8121 95.3368C24.8118 92.8905 19.3562 89.2923 14.7504 84.7521C13.9906 84.0032 14.0322 82.7779 14.8102 82.0479C15.5881 81.318 16.8077 81.3602 17.5699 82.1066C21.7935 86.2426 26.7852 89.5231 32.2706 91.7595C38.3528 94.2393 44.8987 95.3769 51.4609 95.0947C58.0232 94.8124 64.4472 93.117 70.294 90.1242C76.1409 87.1314 81.2729 82.9118 85.3393 77.7536C89.4057 72.5954 92.3107 66.6202 93.856 60.2362C95.4012 53.8522 95.5501 47.2099 94.2927 40.7631C93.0352 34.3163 90.401 28.2169 86.5699 22.8816C83.1148 18.0698 78.7596 13.9819 73.7519 10.8404C72.8482 10.2735 72.5225 9.09749 73.0507 8.17062Z" fill="#077AE2"/>
</svg>
