<svg width="99" height="141" viewBox="0 0 99 141" fill="none" xmlns="http://www.w3.org/2000/svg">
<path d="M23.12 48.48C23.12 42.976 23.968 38.704 25.664 35.664C27.36 32.624 30.4 31.104 34.784 31.104C39.168 31.104 42.208 32.624 43.904 35.664C45.6 38.704 46.448 42.976 46.448 48.48C46.448 54.08 45.6 58.416 43.904 61.488C42.208 64.56 39.168 66.096 34.784 66.096C30.368 66.096 27.312 64.56 25.616 61.488C23.952 58.416 23.12 54.08 23.12 48.48ZM43.136 48.48C43.136 45.504 42.928 42.992 42.512 40.944C42.096 38.896 41.28 37.248 40.064 36C38.848 34.752 37.088 34.128 34.784 34.128C32.48 34.128 30.72 34.752 29.504 36C28.288 37.248 27.472 38.896 27.056 40.944C26.64 42.992 26.432 45.504 26.432 48.48C26.432 51.552 26.64 54.128 27.056 56.208C27.472 58.256 28.288 59.904 29.504 61.152C30.72 62.4 32.48 63.024 34.784 63.024C37.088 63.024 38.848 62.4 40.064 61.152C41.28 59.904 42.096 58.256 42.512 56.208C42.928 54.128 43.136 51.552 43.136 48.48ZM52.5541 40.368C52.7781 37.456 53.8981 35.168 55.9141 33.504C57.9621 31.808 60.6021 30.96 63.8341 30.96C65.9781 30.96 67.8181 31.344 69.3541 32.112C70.8901 32.88 72.0421 33.936 72.8101 35.28C73.6101 36.592 74.0101 38.08 74.0101 39.744C74.0101 41.76 73.4181 43.504 72.2341 44.976C71.0501 46.448 69.3701 47.36 67.1941 47.712V47.952C69.4661 48.4 71.2741 49.392 72.6181 50.928C73.9621 52.432 74.6341 54.416 74.6341 56.88C74.6341 59.632 73.7061 61.888 71.8501 63.648C70.0261 65.376 67.3701 66.24 63.8821 66.24C60.5541 66.24 57.8181 65.376 55.6741 63.648C53.5301 61.888 52.2981 59.408 51.9781 56.208H55.2421C55.5301 58.352 56.4261 60.096 57.9301 61.44C59.4341 62.752 61.4181 63.408 63.8821 63.408C66.3141 63.408 68.1701 62.768 69.4501 61.488C70.7621 60.208 71.4181 58.576 71.4181 56.592C71.4181 51.728 67.9141 49.296 60.9061 49.296H59.8501V46.464H60.9541C67.4821 46.464 70.7461 44.336 70.7461 40.08C70.7461 38.224 70.1381 36.736 68.9221 35.616C67.7061 34.464 65.9781 33.888 63.7381 33.888C61.5621 33.888 59.7541 34.464 58.3141 35.616C56.9061 36.736 56.0741 38.32 55.8181 40.368H52.5541Z" fill="#077AE2"/>
<path d="M73.0507 8.17062C73.5788 7.24374 74.7606 6.91728 75.6662 7.4812C81.1561 10.8999 85.9284 15.3649 89.7079 20.6283C93.8633 26.4152 96.7205 33.031 98.0844 40.0235C99.4483 47.0161 99.2868 54.2207 97.6107 61.145C95.9347 68.0694 92.7837 74.5504 88.3731 80.1453C83.9625 85.7401 78.3961 90.3169 72.0543 93.5631C65.7125 96.8092 58.7447 98.6482 51.6269 98.9543C44.5092 99.2604 37.4092 98.0265 30.8121 95.3368C24.8118 92.8905 19.3562 89.2923 14.7504 84.7521C13.9906 84.0032 14.0322 82.7779 14.8102 82.0479C15.5881 81.318 16.8077 81.3602 17.5699 82.1066C21.7935 86.2426 26.7852 89.5231 32.2706 91.7595C38.3528 94.2393 44.8987 95.3769 51.4609 95.0947C58.0232 94.8124 64.4472 93.117 70.294 90.1242C76.1409 87.1314 81.2729 82.9118 85.3393 77.7536C89.4057 72.5954 92.3107 66.6202 93.856 60.2362C95.4012 53.8522 95.5501 47.2099 94.2927 40.7631C93.0352 34.3163 90.401 28.2169 86.5699 22.8816C83.1148 18.0698 78.7596 13.9819 73.7519 10.8404C72.8482 10.2735 72.5225 9.09749 73.0507 8.17062Z" fill="#077AE2"/>
</svg>
